<?xml version="1.0" encoding="UTF-8"?>
<svg width="512" height="512" viewBox="0 0 512 512" fill="none" xmlns="http://www.w3.org/2000/svg">
  <rect width="512" height="512" rx="64" fill="#E53E3E"/>
  <path d="M128 128H256V160H160V224H240V256H160V352H128V128Z" fill="white"/>
  <path d="M288 128H384V160H320V176H384V208H320V224H384V256H320V272H384V304H320V320H384V352H288V128Z" fill="white"/>
  <path d="M192 128H224V192H240C257.673 192 272 177.673 272 160V128C272 110.327 257.673 96 240 96H192V128ZM224 128V160H240C240 160 240 160 240 160C240 160 240 160 240 160H224V128Z" fill="white"/>
</svg>
